# xmcd CD database file
#
# Track frame offsets:
#	150
#	30630
#	50586
#	79331
#	102451
#	126476
#	152147
#	177057
#
# Disc length: 2612 seconds
#
# Revision: 0
# Processed by: cddbd v1.5.2PL0 Copyright (c) Steve Scherf et al.
# Submitted via: CDex 1.79
#
DISCID=680a3208
DTITLE=Barrelhouse - Hard To Cover
DYEAR=1978
DGENRE=Blues
TTITLE0=Every Night Is Saturday Night
TTITLE1=Ain't good For Nothing
TTITLE2=Memories
TTITLE3=You don't Have To Go
TTITLE4=Blue River Rising
TTITLE5=One More Lonely Night
TTITLE6=Don't Hold Your Breath
TTITLE7=Tennesee Flat Top Box
EXTD=YEAR: 1978
EXTT0=
EXTT1=
EXTT2=
EXTT3=
EXTT4=
EXTT5=
EXTT6=
EXTT7=
PLAYORDER=
